<svg width="62" height="68" viewBox="0 0 62 68" fill="none" xmlns="http://www.w3.org/2000/svg">
<path d="M22.4425 0.772095C21.918 1.05814 21.3698 1.67791 20.8692 2.6314C20.2256 3.82326 19.9157 4.13314 18.7238 4.75291C17.389 5.44419 17.2459 5.46803 12.9076 5.58721C8.54536 5.7064 8.45001 5.73024 6.85292 6.46919C4.6599 7.51803 2.82443 9.30582 1.77559 11.4512C0.345361 14.3116 0.369198 17.9111 1.82327 21.0099C2.96745 23.3936 5.97094 25.8012 8.73606 26.5401L9.71338 26.8023L9.09362 28.5186L8.47385 30.2587L8.40234 46.6349C8.35466 57.743 8.42617 63.3209 8.59303 63.9645C9.33199 66.7535 12.693 67.9692 14.9337 66.2529C16.6738 64.918 16.6977 64.8227 16.6977 53.7861C16.6977 44.275 16.7215 43.9413 17.1744 43.4884C17.8419 42.8209 18.7 42.8924 19.2959 43.6314C19.7727 44.2512 19.7965 44.5134 19.7965 53.8099C19.7965 63.0111 19.8204 63.3924 20.2971 64.3936C21.1791 66.2052 23.6343 67.1587 25.5175 66.4198C26.2802 66.1099 27.3291 65.0134 27.639 64.1552C27.8058 63.7262 27.9012 60.4366 27.9012 55.0971C27.9012 50.2105 27.9965 46.3488 28.1395 45.8483C28.5209 44.4657 29.3552 43.4407 30.9762 42.3442C31.7866 41.7959 32.5733 41.343 32.6925 41.343C32.8116 41.343 32.907 42.9163 32.907 44.8709C32.907 46.8256 32.9785 51.4977 33.0738 55.264C33.2169 61.6762 33.2645 62.1768 33.7174 62.868C34.5279 64.0361 35.3861 64.5366 36.8163 64.6558C38.5564 64.7988 40.0105 63.9884 40.7494 62.4866C41.2262 61.4855 41.25 61.1279 41.25 50.568C41.25 41.7006 41.2977 39.6744 41.5599 39.6744C42.5134 39.6744 44.325 40.4611 44.9925 41.1523C46.3988 42.6541 46.375 42.3442 46.4942 52.8326C46.6134 62.1529 46.6372 62.5581 47.114 63.1779C48.6395 65.2279 51.1901 65.4901 53.2163 63.7977C54.6465 62.6058 54.5988 63.1064 54.5988 45.443V29.2814L55.9814 28.6378C58.5797 27.4459 60.6058 25.1814 61.3686 22.5355C61.9407 20.6047 61.9407 7.23198 61.3686 6.68372C61.1779 6.46919 60.868 6.30233 60.725 6.30233C60.582 6.30233 59.3186 7.44651 57.9122 8.82907L55.3855 11.332L53.9791 10.9268C52.1913 10.4262 48.5204 10.4023 46.8518 10.9268L45.6599 11.2843L43.1331 8.80524C41.7506 7.42268 40.4395 6.30233 40.2488 6.30233C40.0581 6.30233 39.7244 6.49303 39.5099 6.7314C39.1523 7.11279 39.1047 7.89942 39.1047 12.6669V18.1733L37.6506 17.7204C34.4326 16.7192 31.6436 16.2901 27.4244 16.1471C21.4175 15.9564 19.0337 16.457 13.2413 19.0314C11.0244 20.0326 10.5477 20.0564 9.14129 19.389C6.49536 18.1017 6.16164 14.3593 8.54536 12.5477C9.35583 11.9279 9.54652 11.9041 13.2175 11.7611C18.8669 11.5227 21.7273 10.593 24.0872 8.2093C25.4698 6.85059 26.7093 4.51454 26.7093 3.29884C26.7093 1.01047 24.4686 -0.324417 22.4425 0.772095ZM24.564 2.84593C24.8262 3.15582 24.7785 3.44186 24.3018 4.44303C23.2768 6.63605 21.1552 8.35233 18.4855 9.1628C17.9611 9.30582 15.6488 9.52035 13.3605 9.6157C8.64071 9.8064 7.94943 10.0209 6.37617 11.7611C3.58722 14.8599 4.80292 19.818 8.7599 21.4866C10.2855 22.1064 12.1686 21.8204 14.9576 20.5331C17.818 19.2221 20.7023 18.364 21.5605 18.6023C21.918 18.6738 22.3233 18.65 22.4901 18.507C23.0145 18.1017 24.7785 17.9587 27.639 18.1256L30.4518 18.2924L30.6901 18.9599C31.0238 19.818 32.025 19.9134 32.4541 19.1506C32.6686 18.7215 32.8593 18.6738 33.5744 18.8169C34.9331 19.0552 38.7233 20.1517 38.9616 20.3663C39.057 20.4616 39.2477 21.0814 39.3669 21.7012C40.2727 26.5163 44.9448 29.8773 50.7372 29.9012H52.4535V45.8006V61.7L51.9291 62.2483C51.2855 62.9395 49.8791 62.9872 49.0924 62.3436L48.5204 61.8907L48.4012 52.1413C48.3058 45.1808 48.1866 42.225 47.9959 41.7483C47.4715 40.6041 45.5884 38.7924 44.2773 38.2204C42.7518 37.5529 39.2238 37.3384 36.7924 37.7674C34.6709 38.125 32.0727 39.1738 30.0942 40.4849C28.068 41.7959 27.3529 42.5587 26.614 44.2035C26.0419 45.4907 26.018 45.6099 25.8512 54.5488C25.6843 63.5831 25.6843 63.607 25.1361 64.1552C24.3971 64.8942 23.539 64.8465 22.6093 64.0122L21.8227 63.3209L21.7035 53.214C21.5843 43.2262 21.5843 43.1308 21.0361 42.368C20.2733 41.2954 18.6523 40.6994 17.4366 41.0808C16.9361 41.2238 16.2209 41.5814 15.8634 41.8674C14.5762 42.8686 14.5523 43.107 14.5523 53.8576V63.7738L13.9564 64.3459C13.1221 65.2041 11.668 65.1802 11.0006 64.3221C10.5 63.7023 10.5 63.5116 10.5 47.3262C10.5 29.8058 10.5238 29.5913 11.7157 27.2552C12.4785 25.7535 12.2163 25.2291 10.5477 24.8954C7.21048 24.2041 4.30234 22.0349 3.37269 19.5081C2.65757 17.6488 2.65757 14.7645 3.34885 12.9291C4.04013 11.0459 5.63722 9.35349 7.59187 8.40001C9.16513 7.61338 9.23664 7.61338 12.1686 7.66105C13.7895 7.70872 15.8395 7.61338 16.6977 7.47035C19.6297 7.01744 21.8227 5.56338 22.7762 3.44186C23.2529 2.41686 23.9919 2.15466 24.564 2.84593ZM45.3262 13.4535C45.5407 13.4535 46.1128 13.2866 46.6134 13.0721C48.4727 12.3093 51.8099 12.357 54.9087 13.239L56.0291 13.5488L57.8169 11.7849L59.6047 10.0209V15.6942C59.6047 19.1029 59.5093 21.725 59.3424 22.2494C58.389 25.4674 54.718 27.7797 50.4988 27.7797C47.4715 27.7797 45.0878 26.8738 43.2762 24.9907C41.4407 23.1076 41.25 22.2256 41.25 15.5273V9.75872L43.1093 11.618C44.1105 12.6192 45.1355 13.4535 45.3262 13.4535ZM39.1047 50.5919V61.5331L38.5802 62.0099C38.2704 62.2721 37.7936 62.582 37.5076 62.6535C36.7924 62.868 35.5768 62.2006 35.2907 61.4616C35.1477 61.1041 35.0523 56.5273 35.0523 50.5442V40.2227L36.0773 39.9843C36.6256 39.8413 37.5314 39.7221 38.1035 39.6983L39.1047 39.6744V50.5919Z" fill="#0984E3"/>
<path d="M24.8023 18.9122C24.4209 19.6512 24.8977 20.414 25.6843 20.3186C26.4948 20.2233 26.9238 19.5558 26.5663 18.9837C26.1849 18.364 25.136 18.3163 24.8023 18.9122Z" fill="#0984E3"/>
<path d="M33.8605 20.8192C33.5268 21.439 33.789 22.0111 34.4803 22.1779C35.4814 22.4401 36.1965 21.3675 35.4814 20.6523C35.0523 20.2233 34.1465 20.3186 33.8605 20.8192Z" fill="#0984E3"/>
<path d="M27.8297 21.4866C27.5675 21.7489 27.639 22.6308 27.9489 22.9407C28.664 23.6558 29.7366 22.9407 29.4744 21.9157C29.3552 21.4628 29.1646 21.3198 28.6401 21.3198C28.2826 21.3198 27.9012 21.3913 27.8297 21.4866Z" fill="#0984E3"/>
<path d="M35.9343 24.1087C35.6721 24.3709 35.7436 25.2529 36.0535 25.5628C36.7686 26.2779 37.8413 25.5628 37.5791 24.5378C37.4599 24.0849 37.2692 23.9419 36.7448 23.9419C36.3873 23.9419 36.0059 24.0134 35.9343 24.1087Z" fill="#0984E3"/>
<path d="M29.5698 25.3483C29.1884 26.0872 29.6651 26.85 30.4518 26.7547C31.2622 26.6593 31.6913 25.9919 31.3337 25.4198C30.9523 24.8 29.9035 24.7523 29.5698 25.3483Z" fill="#0984E3"/>
<path d="M36.4111 28.1611C36.3157 28.2326 36.2442 28.614 36.2442 28.9715C36.2442 29.4959 36.3872 29.6866 36.864 29.8058C37.2692 29.9012 37.6029 29.8297 37.8413 29.5913C38.0796 29.3529 38.1512 29.0192 38.0558 28.614C37.9366 28.1372 37.7459 27.9942 37.2215 27.9942C36.864 27.9942 36.4826 28.0657 36.4111 28.1611Z" fill="#0984E3"/>
<path d="M30.2849 29.2814C30.1419 29.4721 30.0465 29.8773 30.0942 30.1872C30.1419 30.6401 30.3087 30.7355 31 30.7355C31.6913 30.7355 31.8581 30.6401 31.9058 30.1872C32.0012 29.5198 31.5721 28.9477 31 28.9477C30.7616 28.9477 30.4517 29.1145 30.2849 29.2814Z" fill="#0984E3"/>
<path d="M45.3739 15.8849C45.0878 16.0279 44.7302 16.4332 44.5872 16.8146C43.7291 18.8884 46.2082 20.6047 47.7814 19.0314C49.4262 17.3628 47.5192 14.8599 45.3739 15.8849Z" fill="#0984E3"/>
<path d="M53.264 16.1709C51.8814 17.3389 52.7872 19.6512 54.6227 19.6512C55.6477 19.6512 56.5058 18.7215 56.5058 17.625C56.5058 15.861 54.5988 15.0029 53.264 16.1709Z" fill="#0984E3"/>
<path d="M49.8314 21.0814C49.5692 21.3436 49.3547 21.6535 49.3547 21.7727C49.3547 22.1541 50.0698 22.75 50.5227 22.75C51.4285 22.75 51.8099 21.6773 51.1186 20.986C50.6419 20.4855 50.4035 20.5093 49.8314 21.0814Z" fill="#0984E3"/>
</svg>
